<svg width="327" height="327" viewBox="0 0 327 327" fill="none" xmlns="http://www.w3.org/2000/svg">
<path d="M59.5063 80.7197C58.9586 81.3769 58.0824 81.7055 57.3158 81.5959L35.5203 77.3245C34.206 77.1054 33.0013 76.9959 31.687 76.9959C23.0345 76.9959 15.2582 82.1436 11.863 90.0294C11.7535 90.1389 11.7535 90.3579 11.6439 90.4675L1.34861 118.068C-2.26571 127.815 1.56765 138.658 10.6582 143.916L29.825 154.978C30.4822 155.416 30.9203 156.182 30.9203 157.059C30.5917 164.178 30.8108 171.406 31.687 178.416C31.7965 179.292 31.4679 180.168 30.8108 180.606L12.3011 193.092C3.75815 198.897 0.691459 209.959 4.96292 219.378L17.1202 245.993C20.5154 253.55 28.0726 258.369 36.3965 258.369C38.2584 258.369 40.0108 258.15 41.8728 257.602L63.3396 251.907C64.1063 251.688 64.9825 252.016 65.5301 252.674C70.2397 257.931 75.6064 262.75 81.1921 267.24C81.8493 267.788 82.1779 268.664 82.0683 269.431L77.9064 291.226C75.935 301.412 81.6302 311.488 91.3779 315.103L118.978 325.398C121.388 326.274 123.907 326.712 126.426 326.712C133.983 326.712 140.993 322.66 144.826 316.088L155.888 296.922C156.326 296.264 157.093 295.826 158.079 295.826C164.76 296.155 171.66 295.826 178.341 295.169C179.217 295.06 180.093 295.388 180.531 296.045L193.126 314.665C197.069 320.469 203.641 323.974 210.65 323.974C213.717 323.974 216.674 323.317 219.412 322.112L246.027 309.955C255.446 305.684 260.375 295.279 257.637 285.203L251.941 264.064C251.722 263.298 252.051 262.421 252.708 261.764C258.075 256.945 262.894 251.797 267.165 246.321C267.713 245.664 268.589 245.226 269.356 245.445L291.48 249.607C292.794 249.826 294.108 249.936 295.423 249.936C304.294 249.936 312.289 244.35 315.356 236.135L325.651 208.535C329.266 198.787 325.432 187.945 316.342 182.687L297.394 171.735C296.737 171.297 296.299 170.53 296.299 169.654C296.627 162.644 296.408 155.416 295.642 148.406C295.532 147.53 295.861 146.763 296.518 146.216L315.137 133.62C323.68 127.815 326.747 116.753 322.475 107.334L310.318 80.7197C306.923 73.1625 299.365 68.3434 291.042 68.3434C289.18 68.3434 287.427 68.5625 285.456 69.1101L264.427 75.0245C263.66 75.2435 262.784 74.9149 262.127 74.2578C257.308 69.0006 252.16 64.072 246.794 59.8005C246.027 59.2529 245.698 58.3767 245.917 57.61L250.079 35.486C252.051 25.3002 246.355 15.2239 236.608 11.6096L209.008 1.31429C206.598 0.438096 204.079 0 201.56 0C194.003 0 186.993 4.05241 183.16 10.6239L172.207 29.4622C171.769 30.1193 171.112 30.5574 170.017 30.5574C162.679 30.1193 155.231 30.3384 148.002 31.2146C147.126 31.3241 146.25 30.9955 145.702 30.3384L133.216 11.9382C129.273 6.13339 122.702 2.6286 115.692 2.6286C112.626 2.6286 109.669 3.28574 106.93 4.49051L80.316 16.6478C70.8968 20.9192 65.9682 31.3241 68.7063 41.4004L74.4016 62.8672C74.6207 63.6339 74.2921 64.5101 73.6349 65.0577C68.8158 69.7673 63.8872 75.0245 59.5063 80.7197ZM75.0588 92.9865C78.7826 88.1674 82.9445 83.6769 87.4351 79.734C93.5685 74.1483 96.0875 65.7149 94.0065 57.7195L88.3112 36.2527C88.0922 35.5956 88.4208 34.9384 88.9684 34.7193L115.583 22.5621C115.802 22.4526 115.911 22.4526 116.131 22.4526C116.35 22.4526 116.897 22.4526 117.226 23.0002L129.712 41.4004C134.312 48.1909 142.416 51.9147 150.74 50.929C156.874 50.1623 163.117 49.9433 169.25 50.3814C177.683 50.929 185.679 46.548 189.731 39.4289L200.574 20.5907C200.903 19.9335 201.56 19.7145 202.327 19.9335L229.927 30.2288C230.584 30.4479 230.912 31.2146 230.803 31.7622L226.641 53.8862C225.108 61.8815 228.174 70.0958 234.636 75.353C239.236 78.9674 243.617 83.1293 247.67 87.6198C251.941 92.3294 257.856 94.958 264.098 94.958C266.07 94.958 268.041 94.7389 270.013 94.1913L290.932 88.3865C291.48 88.277 292.137 88.3865 292.575 89.0436L304.732 115.658C304.951 116.206 304.732 116.972 304.294 117.301L285.675 129.896C278.884 134.496 275.27 142.492 276.146 150.706C276.803 156.73 277.022 162.754 276.694 168.778C276.256 177.102 280.418 184.987 287.646 189.149L306.594 200.102C307.251 200.43 307.47 201.087 307.251 201.854L296.956 229.454C296.737 230.002 295.97 230.44 295.423 230.331L273.299 226.169C271.984 225.95 270.56 225.731 269.246 225.731C262.456 225.731 256.213 228.797 251.941 234.164C248.327 238.764 244.165 243.145 239.565 247.307C233.322 253.002 230.803 261.436 232.993 269.431L238.689 290.569C238.908 291.226 238.579 291.884 238.032 292.103L211.417 304.26C211.198 304.369 211.089 304.369 210.869 304.369C210.65 304.369 210.103 304.369 209.774 303.822L197.179 285.203C192.579 278.521 184.584 274.688 176.26 275.674C170.564 276.331 164.76 276.55 159.064 276.221C150.74 275.893 142.964 280.164 138.802 287.283L127.74 306.45C127.412 307.107 126.754 307.327 125.988 307.107L98.3875 296.812C97.7304 296.593 97.4018 295.826 97.5113 295.279L101.673 273.483C103.207 265.379 100.14 257.164 93.5684 251.907C88.7494 248.183 84.3684 244.021 80.316 239.531C76.154 234.931 70.1301 232.302 63.8872 232.302C62.0253 232.302 60.0539 232.521 58.1919 233.069L36.7251 238.764C36.1775 238.873 35.5203 238.764 35.0822 238.107L22.925 211.492C22.7059 210.945 22.925 210.178 23.3631 209.849L41.7632 197.364C48.5538 192.764 52.2776 184.659 51.2919 176.444C50.6347 170.53 50.4157 164.397 50.6347 158.373C50.9633 150.049 46.8014 142.273 39.6823 138.22L20.5154 127.158C19.8583 126.83 19.6392 126.173 19.8583 125.406L30.0441 98.1342C30.3727 97.5866 31.0298 97.1485 31.5774 97.1485C31.687 97.1485 31.687 97.1485 31.687 97.1485L53.4824 101.31C54.7967 101.529 56.2205 101.748 57.6443 101.748C64.4349 101.42 70.7873 98.3532 75.0588 92.9865Z" fill="#45697F"/>
<path d="M142.307 222.992C149.207 225.402 156.326 226.716 163.555 226.716C190.388 226.716 214.484 209.74 223.465 184.44C235.184 151.473 217.879 115.001 184.912 103.282C178.012 100.872 170.893 99.558 163.664 99.558C136.831 99.558 112.735 116.534 103.754 141.835C92.0351 174.911 109.34 211.273 142.307 222.992ZM122.483 148.516C128.616 131.101 145.155 119.492 163.664 119.492C168.593 119.492 173.521 120.368 178.341 122.011C201.012 130.115 212.95 155.087 204.846 177.759C198.712 195.173 182.174 206.783 163.664 206.783C158.736 206.783 153.807 205.907 148.988 204.264C126.316 196.268 114.378 171.187 122.483 148.516Z" fill="#45697F"/>
</svg>
