<svg width="265" height="264" viewBox="0 0 265 264" fill="none" xmlns="http://www.w3.org/2000/svg">
<path d="M48.084 65.2256C47.6415 65.7566 46.9335 66.0221 46.314 65.9336L28.7022 62.4821C27.6402 62.3051 26.6667 62.2166 25.6047 62.2166C18.613 62.2166 12.3294 66.3761 9.58588 72.7482C9.49738 72.8367 9.49739 73.0138 9.40888 73.1023L1.08974 95.4046C-1.83081 103.281 1.26674 112.043 8.61237 116.291L24.1001 125.23C24.6311 125.584 24.9851 126.203 24.9851 126.911C24.7196 132.664 24.8966 138.505 25.6047 144.169C25.6932 144.877 25.4277 145.585 24.8966 145.939L9.93989 156.028C3.03677 160.719 0.558734 169.657 4.01029 177.269L13.834 198.774C16.5775 204.881 22.6841 208.775 29.4102 208.775C30.9147 208.775 32.3308 208.598 33.8353 208.156L51.1816 203.553C51.8011 203.376 52.5091 203.642 52.9516 204.173C56.7572 208.421 61.0938 212.315 65.6073 215.944C66.1383 216.386 66.4038 217.094 66.3153 217.714L62.9523 235.326C61.3593 243.556 65.9613 251.698 73.838 254.619L96.1404 262.938C98.0874 263.646 100.123 264 102.158 264C108.265 264 113.929 260.725 117.027 255.415L125.965 239.928C126.319 239.397 126.939 239.043 127.735 239.043C133.134 239.308 138.71 239.043 144.108 238.512C144.816 238.423 145.524 238.689 145.878 239.22L156.056 254.265C159.242 258.955 164.552 261.787 170.216 261.787C172.694 261.787 175.084 261.256 177.296 260.283L198.802 250.459C206.413 247.008 210.396 238.6 208.183 230.458L203.581 213.377C203.404 212.758 203.67 212.05 204.201 211.519C208.537 207.625 212.431 203.465 215.883 199.04C216.325 198.509 217.033 198.155 217.653 198.332L235.53 201.695C236.592 201.872 237.654 201.96 238.716 201.96C245.885 201.96 252.346 197.447 254.824 190.809L263.143 168.507C266.063 160.63 262.966 151.869 255.62 147.621L240.309 138.77C239.778 138.416 239.424 137.797 239.424 137.089C239.69 131.425 239.513 125.584 238.893 119.92C238.805 119.212 239.07 118.592 239.601 118.15L254.647 107.972C261.55 103.281 264.028 94.3426 260.576 86.7315L250.753 65.2256C248.009 59.119 241.902 55.2249 235.176 55.2249C233.672 55.2249 232.256 55.402 230.663 55.8445L213.67 60.6235C213.051 60.8005 212.343 60.535 211.812 60.004C207.918 55.756 203.758 51.7734 199.422 48.3218C198.802 47.8793 198.537 47.1713 198.714 46.5518L202.077 28.6745C203.67 20.4439 199.068 12.3017 191.191 9.38116L168.889 1.06202C166.942 0.354003 164.906 0 162.87 0C156.764 0 151.1 3.27455 148.002 8.58464L139.152 23.8069C138.798 24.3379 138.267 24.6919 137.382 24.6919C131.452 24.3379 125.434 24.5149 119.593 25.2229C118.885 25.3114 118.177 25.0459 117.735 24.5149L107.646 9.64667C104.459 4.95609 99.1494 2.12404 93.4853 2.12404C91.0073 2.12404 88.6177 2.65504 86.4052 3.62856L64.8993 13.4522C57.2882 16.9038 53.3056 25.3114 55.5182 33.4536L60.1202 50.7999C60.2972 51.4194 60.0317 52.1274 59.5007 52.5699C55.6067 56.3755 51.6241 60.6235 48.084 65.2256ZM60.6513 75.1378C63.6603 71.2437 67.0234 67.6152 70.6519 64.4291C75.608 59.9155 77.6435 53.1009 75.962 46.6403L71.3599 29.294C71.1829 28.763 71.4484 28.232 71.8909 28.055L93.3968 18.2313C93.5738 18.1428 93.6623 18.1428 93.8393 18.1428C94.0163 18.1428 94.4588 18.1428 94.7243 18.5853L104.813 33.4536C108.531 38.9407 115.08 41.9497 121.806 41.1532C126.762 40.5337 131.806 40.3567 136.763 40.7107C143.577 41.1532 150.038 37.6131 153.312 31.8605L162.074 16.6383C162.339 16.1073 162.87 15.9303 163.49 16.1073L185.792 24.4264C186.323 24.6034 186.589 25.2229 186.5 25.6654L183.137 43.5427C181.898 50.0034 184.376 56.641 189.598 60.889C193.315 63.8096 196.855 67.1726 200.13 70.8012C203.581 74.6068 208.36 76.7308 213.405 76.7308C214.998 76.7308 216.591 76.5538 218.184 76.1113L235.088 71.4207C235.53 71.3322 236.061 71.4207 236.415 71.9517L246.239 93.4576C246.416 93.9001 246.239 94.5196 245.885 94.7851L230.84 104.963C225.353 108.68 222.432 115.14 223.14 121.778C223.671 126.646 223.848 131.513 223.583 136.381C223.229 143.107 226.592 149.479 232.433 152.842L247.743 161.692C248.274 161.958 248.451 162.489 248.274 163.108L239.955 185.411C239.778 185.853 239.159 186.207 238.716 186.119L220.839 182.756C219.777 182.579 218.626 182.402 217.564 182.402C212.077 182.402 207.033 184.88 203.581 189.216C200.661 192.933 197.298 196.473 193.581 199.836C188.536 204.438 186.5 211.253 188.27 217.714L192.872 234.795C193.049 235.326 192.784 235.857 192.341 236.034L170.836 245.857C170.659 245.946 170.57 245.946 170.393 245.946C170.216 245.946 169.774 245.946 169.508 245.503L159.33 230.458C155.613 225.059 149.153 221.962 142.427 222.758C137.825 223.289 133.134 223.466 128.532 223.201C121.806 222.935 115.522 226.387 112.159 232.139L103.22 247.627C102.955 248.158 102.424 248.335 101.804 248.158L79.5021 239.839C78.9711 239.662 78.7056 239.043 78.7941 238.6L82.1571 220.988C83.3961 214.439 80.9181 207.802 75.608 203.553C71.7139 200.544 68.1739 197.181 64.8993 193.553C61.5363 189.836 56.6687 187.712 51.6241 187.712C50.1196 187.712 48.5265 187.889 47.022 188.331L29.6757 192.933C29.2332 193.022 28.7022 192.933 28.3482 192.402L18.5245 170.896C18.3475 170.454 18.5245 169.834 18.8785 169.569L33.7468 159.48C39.2339 155.763 42.2429 149.214 41.4464 142.576C40.9154 137.797 40.7384 132.841 40.9154 127.973C41.1809 121.247 37.8179 114.963 32.0653 111.689L16.5775 102.75C16.0465 102.485 15.8695 101.954 16.0465 101.334L24.2771 79.2974C24.5426 78.8549 25.0736 78.5008 25.5162 78.5008C25.6047 78.5008 25.6047 78.5008 25.6047 78.5008L43.2165 81.8639C44.2785 82.0409 45.429 82.2179 46.5795 82.2179C52.0666 81.9524 57.1997 79.4743 60.6513 75.1378Z" fill="#679EBF"/>
<path d="M114.991 180.189C120.567 182.136 126.319 183.198 132.16 183.198C153.843 183.198 173.314 169.48 180.571 149.037C190.04 122.398 176.057 92.9266 149.418 83.457C143.843 81.5099 138.09 80.4479 132.249 80.4479C110.566 80.4479 91.0958 94.1656 83.8386 114.609C74.369 141.337 88.3522 170.719 114.991 180.189ZM98.9724 120.008C103.928 105.936 117.292 96.5552 132.249 96.5552C136.232 96.5552 140.214 97.2632 144.108 98.5907C162.428 105.14 172.075 125.318 165.526 143.638C160.569 157.71 147.206 167.091 132.249 167.091C128.266 167.091 124.284 166.383 120.39 165.055C102.07 158.595 92.4233 138.328 98.9724 120.008Z" fill="#679EBF"/>
</svg>
